<svg xmlns="http://www.w3.org/2000/svg" width="2000pt" height="2768" viewBox="0 0 2000 2076"><path style="stroke:none;fill-rule:nonzero;fill:#f30;fill-opacity:1" d="M.176 0h1998.953v1674.363H.176zm0 0"/><path style="stroke:none;fill-rule:nonzero;fill:#fff;fill-opacity:1" d="M1537.566 962.887v122.058c0 32.168-26.086 58.246-58.261 58.246-32.176 0-58.262-26.078-58.262-58.246V484.746H1308v701.043h342.61V962.54h-113.044zm-849.043 121.015c0 32.688-25.742 60.157-58.09 60.157-32.519-.38-58.628-26.95-58.433-59.461V962.539H458.957v101.195c0 50.77 44.52 132.489 171.129 132.489 126.61 0 171.133-62.594 171.133-132.489V484.746H688.523zm424.348-599.156h-226.09v701.043h226.09c84.52 0 113.043-55.984 113.043-91.805V884.301c0-29.906-29.914-68.856-74.437-68.856 44.523 0 74.437-61.894 74.437-96.668V599.152c0-77.543-69.566-114.406-113.043-114.406zm-44.523 644.016h-68.524V846.047h68.524c44.523 0 44.523 32.34 44.523 142.226 0 109.887 0 140.489-44.523 140.489zm-6.957-341.828-61.567-.348V551.164h61.567c41.39 0 51.48 8.695 51.48 118.582 0 109.883-10.09 117.188-51.48 117.188zm-545.739 99.453c36.778.664 67.133-28.602 67.805-65.367.668-36.77-28.602-67.122-65.379-67.797-36.777-.672-67.14 28.586-67.816 65.355v1.043c-.387 36.488 28.89 66.383 65.39 66.766zM620 484.747H411.305L515.652 727.12zm0 0"/><path style="stroke:none;fill-rule:nonzero;fill:#f30;fill-opacity:1" d="M383.824 1793.29v111.624H256.176V1793.29h-51.48v251.066h51.827v-117.187h127.653v90.062a27.254 27.254 0 0 0 3.129 13.91 20.551 20.551 0 0 0 8.347 8 26.686 26.686 0 0 0 10.434 3.825 51.023 51.023 0 0 0 9.738 1.043h19.828V1792.94h-51.828zM1393.219 2044.355V1793.29h-50.438l-101.215 185.691-102.957-186.039h-51.132v251.067h26.437v-194.735l108.52 194.735H1236l105.738-192.996v166.218a27.36 27.36 0 0 0 3.48 13.91 23.958 23.958 0 0 0 8.348 8.348 26.663 26.663 0 0 0 10.434 3.824 54.68 54.68 0 0 0 10.086 1.043zM1717.043 2044.355 1588 1787.727h-15.305l-132.172 256.628h30.258l41.043-79.632h93.567l-12.868-25.73h-67.48l43.48-84.5 85.215 169.695a37.8 37.8 0 0 0 12.524 15.3 35.456 35.456 0 0 0 19.129 4.867zM1985.914 1793.29a25.115 25.115 0 0 0-4.871.347 16.614 16.614 0 0 0-5.219 2.086 12.05 12.05 0 0 0-4.172 4.172 13.88 13.88 0 0 0-1.738 6.957v161.695l-171.828-175.258h-33.043v251.066h30.262v-189.168l174.61 182.91c6.956 6.954 17.042 6.258 26.433 6.258h3.476V1793.29zM631.477 1787.727h-14.954L484 2044.355h30.262L612 1854.492l42.434 84.5h-67.825l-13.218 25.383h94.261l29.914 59.813a37.79 37.79 0 0 0 12.52 15.3 35.654 35.654 0 0 0 19.133 4.52h31.652zM963.305 2024.188l-76.176-94.586h-26.434v114.753H809.22V1793.29h94.957s38.953-.695 64.695 12.52c25.738 13.21 36.52 31.296 36.52 54.593 0 23.297-13.567 50.422-62.61 64.332l98.785 119.621h-40a66.532 66.532 0 0 1-18.09-3.128c-9.39-3.825-20.171-17.04-20.171-17.04zm-102.61-208.993v94.934h24s23.653.348 39.305-8.695c15.652-9.04 26.434-21.559 26.434-39.989-.114-18.422-11.399-34.93-28.52-41.73a61.565 61.565 0 0 0-26.437-4.867h-34.782zM.176 1927.168h7.648v48.336c7.653-7.652 14.61-11.824 26.09-11.824 18.781 0 32 14.605 32 35.816 0 24.691-16 40.34-40.348 40.34a64.506 64.506 0 0 1-25.39-5.566zm8 101.887a48.422 48.422 0 0 0 17.738 3.476c17.277.586 31.762-12.941 32.348-30.218v-2.122c0-17.386-10.438-29.554-25.043-29.554-9.043 0-16.348 4.172-25.043 14.254zM89.566 2076h-7.652l25.043-51.813-30.262-59.117h8l26.086 51.465 25.043-51.465h8zm0 0"/></svg>