<?xml version="1.0" encoding="UTF-8" standalone="no"?><!DOCTYPE svg PUBLIC "-//W3C//DTD SVG 1.1//EN" "http://www.w3.org/Graphics/SVG/1.1/DTD/svg11.dtd"><svg width="100%" height="100%" viewBox="0 0 359 359" version="1.1" xmlns="http://www.w3.org/2000/svg" xmlns:xlink="http://www.w3.org/1999/xlink" xml:space="preserve" xmlns:serif="http://www.serif.com/" style="fill-rule:evenodd;clip-rule:evenodd;stroke-linejoin:round;stroke-miterlimit:2;"><path id="audifonos" d="M208.954,42.111c-18.651,-4.983 -38.282,-4.983 -56.933,-0.001c-22.442,6.069 -52.265,16.228 -66.782,29.977c-0.249,0.236 -0.592,0.428 -1.001,0.585c-9.971,3.917 -18.635,10.565 -25.002,19.18c-16.351,22.111 -27.497,50.006 -31.268,78.261c-0.031,0.235 0.029,0.515 0.151,0.819c1.728,4.416 2.604,9.12 2.581,13.862c-0.019,22.385 5.012,44.342 14.549,64.339c1.331,2.725 4.562,3.934 7.356,2.751c0.007,0.018 0.008,0.018 0.008,0.018l-0.857,-4.735c-1.149,-6.344 1.818,-12.488 6.994,-15.684c2.405,-1.51 3.649,-4.33 3.144,-7.124c0.089,-0.018 0.089,-0.018 0.089,-0.018c-1.324,-7.314 3.539,-14.327 10.853,-15.651l26.504,-4.798c7.314,-1.324 14.327,3.539 15.651,10.853l22.23,122.796c1.324,7.314 -3.539,14.327 -10.853,15.651l-26.505,4.798c-7.314,1.324 -14.327,-3.539 -15.651,-10.853c0,-0 0,-0 0,-0.001c-0.843,-4.655 -4.071,-8.524 -8.499,-10.188c-4.934,-1.761 -8.8,-6.048 -9.799,-11.569c-0,-0 -0,-0.001 -0,-0.002c-0.38,-2.098 -1.939,-3.788 -4,-4.335c-5.682,-1.452 -10.263,-6.106 -11.376,-12.254l-0.203,-1.123c-31.934,-33.74 -47.813,-70.456 -47.231,-115.149c0.093,-5.716 0.928,-11.397 2.484,-16.898c1.183,-3.664 2.501,-7.845 2.657,-8.991c5.078,-37.132 21.344,-73.196 45.107,-99.41c4.481,-4.878 7.675,-10.797 9.292,-17.221c0.143,-0.346 0.267,-0.629 0.439,-0.801c30.355,-30.186 78.27,-46.589 117.404,-46.589c39.135,0 87.05,16.403 117.405,46.589c0.172,0.172 0.296,0.455 0.439,0.801c1.617,6.424 4.81,12.343 9.291,17.221c23.764,26.214 40.03,62.278 45.108,99.41c0.156,1.146 1.474,5.327 2.657,8.991c1.556,5.501 2.391,11.182 2.484,16.898c0.582,44.693 -15.297,81.409 -47.231,115.149l-0.203,1.123c-1.113,6.148 -5.694,10.802 -11.376,12.254c-2.061,0.547 -3.62,2.237 -4,4.335c0,0.001 -0,0.002 -0,0.002c-1,5.521 -4.865,9.808 -9.799,11.569c-4.429,1.664 -7.657,5.533 -8.499,10.188c-0,0.001 -0,0.001 -0,0.001c-1.324,7.314 -8.337,12.177 -15.651,10.853l-26.505,-4.798c-7.314,-1.324 -12.177,-8.337 -10.853,-15.651l22.229,-122.796c1.324,-7.314 8.337,-12.177 15.652,-10.853l26.504,4.798c7.314,1.324 12.177,8.337 10.853,15.651c-0,-0 -0,0 0.089,0.018c-0.506,2.794 0.739,5.614 3.144,7.124c5.176,3.196 8.143,9.34 6.994,15.684l-0.857,4.735c0,-0 0,-0 0.008,-0.018c2.794,1.183 6.025,-0.026 7.356,-2.751c9.537,-19.997 14.568,-41.954 14.549,-64.339c-0.023,-4.742 0.852,-9.446 2.581,-13.862c0.122,-0.304 0.182,-0.584 0.15,-0.819c-3.77,-28.255 -14.916,-56.15 -31.267,-78.261c-6.367,-8.615 -15.032,-15.263 -25.002,-19.18c-0.409,-0.157 -0.753,-0.349 -1.001,-0.585c-14.517,-13.749 -44.34,-23.908 -66.782,-29.976Z" style="fill:#b0b0b0;"/></svg>