<?xml version="1.0" encoding="UTF-8" standalone="no"?><!DOCTYPE svg PUBLIC "-//W3C//DTD SVG 1.1//EN" "http://www.w3.org/Graphics/SVG/1.1/DTD/svg11.dtd"><svg width="100%" height="100%" viewBox="0 0 667 225" version="1.1" xmlns="http://www.w3.org/2000/svg" xmlns:xlink="http://www.w3.org/1999/xlink" xml:space="preserve" xmlns:serif="http://www.serif.com/" style="fill-rule:evenodd;clip-rule:evenodd;stroke-linejoin:round;stroke-miterlimit:2;"><g id="LO_3bh-SMALL"><path d="M105.295,3.166c15.482,0 27.96,1.477 37.433,4.431c9.472,2.954 16.45,7.996 20.931,15.126c4.482,7.13 6.723,16.908 6.723,29.335c-0,8.963 -0.917,17.163 -2.75,24.598c-1.834,7.436 -4.94,13.649 -9.32,18.64c-4.38,4.991 -10.644,8.301 -18.793,9.931l0,1.222c13.853,2.241 23.376,7.996 28.571,17.265c5.195,9.269 7.894,21.136 8.098,35.599c0.204,14.26 -1.834,26.025 -6.112,35.294c-4.278,9.269 -11.306,16.144 -21.084,20.626c-9.778,4.482 -23.02,6.723 -39.724,6.723c-11.205,-0 -108.733,-1.681 -108.733,-1.681l0,-23.835c0,0 76.444,0.866 82.759,1.07c6.315,0.203 12.732,0.305 19.251,0.305c11.408,0 20.524,-1.273 27.349,-3.819c6.824,-2.547 11.815,-6.876 14.973,-12.987c3.157,-6.112 4.736,-14.26 4.736,-24.446c0,-7.741 -1.069,-14.514 -3.208,-20.32c-2.139,-5.806 -6.214,-10.339 -12.223,-13.598c-6.01,-3.26 -14.821,-4.889 -26.432,-4.889l-107.205,-0l0,-21.085l107.205,0c8.352,0 15.024,-1.12 20.015,-3.361c4.991,-2.241 8.708,-5.144 11.153,-8.709c2.445,-3.565 4.023,-7.639 4.736,-12.223c0.713,-4.583 1.07,-9.32 1.07,-14.209c-0.204,-8.963 -1.63,-15.635 -4.278,-20.015c-2.648,-4.38 -7.079,-7.334 -13.292,-8.861c-6.214,-1.528 -14.719,-2.292 -25.516,-2.292c-9.982,-0 -101.093,0.764 -101.093,0.764l0,-23.224c0,0 94.982,-1.375 104.76,-1.375Z" style="fill:#fff;fill-rule:nonzero;"/><path d="M331.434,4.694c17.316,0 31.067,1.579 41.252,4.736c10.186,3.158 17.571,8.709 22.154,16.654c4.584,7.945 6.876,19.149 6.876,33.613c-0,15.075 -2.802,26.585 -8.404,34.53c-5.602,7.944 -14.718,12.528 -27.348,13.75l-0,1.223c15.686,1.426 26.635,6.926 32.849,16.5c6.213,9.575 9.32,22.816 9.32,39.725c-0,14.463 -2.241,25.668 -6.723,33.613c-4.482,7.944 -11.663,13.496 -21.543,16.653c-9.88,3.158 -22.867,4.737 -38.96,4.737c-12.019,-0 -86.019,-0.051 -94.676,-0.153c-8.658,-0.102 -16.654,-0.357 -23.988,-0.764c-7.334,-0.407 -14.973,-0.917 -22.918,-1.528l4.278,-21.39c4.482,0.204 12.987,0.407 25.515,0.611c12.529,0.204 90.806,0.306 107.511,0.306c11.204,-0 20.015,-0.968 26.432,-2.903c6.417,-1.935 11,-5.551 13.75,-10.848c2.751,-5.297 4.126,-12.936 4.126,-22.918c-0,-11 -1.426,-19.455 -4.278,-25.362c-2.852,-5.908 -7.64,-10.084 -14.362,-12.529c-6.723,-2.444 -15.89,-3.768 -27.502,-3.972l-131.497,-0l-0,-20.473l131.192,-0c10.186,-0.204 18.283,-1.274 24.293,-3.209c6.009,-1.935 10.338,-5.5 12.987,-10.695c2.648,-5.195 3.972,-12.477 3.972,-21.848c-0,-9.575 -1.426,-16.909 -4.278,-22.001c-2.852,-5.093 -7.588,-8.556 -14.209,-10.39c-6.621,-1.833 -15.635,-2.75 -27.043,-2.75l-90.551,-0c-7.945,-0 -14.922,0.051 -20.932,0.153c-6.01,0.102 -11.051,0.356 -15.126,0.764l-4.278,-21.39c7.13,-0.815 13.904,-1.375 20.321,-1.681c6.417,-0.306 13.445,-0.509 21.084,-0.611c7.64,-0.102 80.315,-0.153 90.704,-0.153Zm-105.83,2.445l0,210.844l-26.279,0l0,-210.844l26.279,-0Z" style="fill:#03a8f2;fill-rule:nonzero;"/><path d="M477.743,7.139l0,210.844l-26.89,0l-0,-210.844l26.89,-0Zm164.194,86.476l0,23.224l-166.638,-0l-0,-23.224l166.638,0Zm23.529,-86.476l0,210.844l-26.89,0l-0,-210.844l26.89,-0Z" style="fill:#fff;fill-rule:nonzero;"/></g></svg>