
<svg width="100%" height="100%" viewBox="0 0 177 59" version="1.1" xmlns="http://www.w3.org/2000/svg" xmlnsXlink="http://www.w3.org/1999/xlink" xmlSpace="preserve" xmlnsSerif="http://www.serif.com/" style="fill-rule:evenodd;clip-rule:evenodd;stroke-linejoin:round;stroke-miterlimit:2;">
    <g transform="matrix(1,0,0,1,-218,-445)">
        <g id="lo_3BH-completo">
            <g transform="matrix(1,0,0,1,330.2,495.83)">
                <path d="M0,6.29C0.3,6 0.46,5.62 0.46,5.2L0.46,1.11C0.46,0.71 0.3,0.37 0.04,0.09C-0.181,-0.13 -0.44,-0.311 -0.76,-0.39L-0.82,-0.41L-0.9,-0.41L-0.931,-0.42L-1.07,-0.43L-6.891,-0.43L-6.97,-0.41C-7.08,-0.39 -7.19,-0.35 -7.25,-0.32L-7.53,-0.18L-7.54,-0.17L-7.57,-0.15L-7.82,0.03C-7.92,0.11 -8,0.2 -8.07,0.29C-8.26,0.53 -8.37,0.82 -8.37,1.13L-8.37,5.18C-8.37,5.59 -8.21,5.96 -7.92,6.25C-7.681,6.49 -7.38,6.67 -7.021,6.729L-6.96,6.74L-1.101,6.74C-0.681,6.74 -0.3,6.59 0,6.29M-8.59,6.97C-9.09,6.47 -9.34,5.89 -9.34,5.2L-9.34,1.12C-9.34,0.42 -9.09,-0.16 -8.59,-0.66C-8.09,-1.16 -7.5,-1.4 -6.811,-1.4L-1.101,-1.42C-0.4,-1.41 0.189,-1.16 0.689,-0.66C1.18,-0.17 1.42,0.42 1.42,1.12L1.42,5.2C1.42,5.9 1.189,6.479 0.689,6.97C0.189,7.47 -0.391,7.71 -1.101,7.71L-6.811,7.71C-7.5,7.71 -8.09,7.47 -8.59,6.97" style="fill:white;"/>
            </g>
            <g transform="matrix(1,0,0,1,219.02,499.479)">
                <path d="M0,-0.989L6.36,-0.989L6.64,-1.01C6.95,-1.059 7.23,-1.21 7.45,-1.439C7.75,-1.729 7.91,-2.109 7.91,-2.539C7.91,-2.96 7.75,-3.349 7.44,-3.649C7.15,-3.929 6.78,-4.099 6.36,-4.099L0,-4.099L0,-0.989ZM6.45,3.091L6.74,3.08C7.05,3.021 7.34,2.881 7.57,2.641C7.85,2.341 8.01,1.971 8.01,1.551L8.01,1.54C8.01,1.12 7.85,0.74 7.55,0.45C7.26,0.16 6.88,-0.01 6.45,-0.01L-0.02,-0.01L0.01,3.091L6.45,3.091ZM-0.97,4.061L-0.97,-5.05L6.27,-5.05C6.98,-5.05 7.56,-4.809 8.06,-4.309C8.56,-3.819 8.8,-3.229 8.8,-2.529C8.8,-2.229 8.75,-1.96 8.67,-1.71C8.58,-1.46 8.45,-1.219 8.28,-0.999L7.91,-0.519L8.31,-0.059C8.51,0.16 8.68,0.421 8.8,0.711C8.92,0.971 8.98,1.251 8.98,1.551C8.98,2.251 8.74,2.83 8.24,3.321C7.74,3.821 7.16,4.061 6.45,4.061L-0.97,4.061Z" style="fill:rgb(3,168,242);"/>
            </g>
            <g transform="matrix(1,0,0,1,343.8,495.15)">
                <path d="M0,7.65C-0.5,7.15 -0.74,6.57 -0.74,5.88L-0.74,-0.72L0.22,-0.72L0.22,5.87C0.22,6.27 0.37,6.65 0.67,6.94C0.91,7.19 1.22,7.37 1.57,7.43L1.63,7.44L6.681,7.44L6.96,7.421C7.271,7.37 7.55,7.22 7.79,6.99C8.07,6.69 8.24,6.32 8.23,5.89L8.23,-0.74L9.2,-0.74L9.2,5.87C9.2,6.57 8.96,7.16 8.46,7.65C7.96,8.15 7.391,8.39 6.681,8.39L1.78,8.39C1.09,8.39 0.51,8.15 0,7.65" style="fill:white;"/>
            </g>
            <g transform="matrix(1,0,0,1,300.3,494.41)">
                <path d="M0,9.13L0,0L0.97,0L0.97,4.08L8.16,4.08L8.16,0L9.12,0L9.12,9.13L8.16,9.13L8.16,5.05L0.97,5.05L0.97,9.13L0,9.13Z" style="fill:white;"/>
            </g>
            <g transform="matrix(1,0,0,1,259.92,495.15)">
                <path d="M0,7.65C-0.5,7.15 -0.74,6.57 -0.74,5.88L-0.74,-0.72L0.22,-0.72L0.22,5.87C0.22,6.28 0.37,6.65 0.67,6.95C0.91,7.19 1.21,7.37 1.58,7.43L1.64,7.44L6.68,7.44L6.96,7.421C7.27,7.37 7.56,7.22 7.79,6.99C8.07,6.69 8.24,6.32 8.23,5.9L8.23,-0.74L9.2,-0.74L9.2,5.87C9.2,6.57 8.96,7.16 8.46,7.65C7.97,8.15 7.38,8.39 6.68,8.39L1.78,8.39C1.09,8.39 0.51,8.15 0,7.65" style="fill:rgb(3,168,242);"/>
            </g>
            <g transform="matrix(1,0,0,1,240.18,495.15)">
                <path d="M0,7.65C-0.51,7.15 -0.75,6.57 -0.75,5.88L-0.75,-0.74L0.22,-0.74L0.22,5.87C0.22,6.291 0.38,6.68 0.68,6.98C0.97,7.27 1.35,7.44 1.78,7.44L7.56,7.44L7.56,8.39L1.78,8.39C1.08,8.39 0.5,8.15 0,7.65" style="fill:rgb(3,168,242);"/>
            </g>
            <g transform="matrix(1,0,0,1,387.36,495.189)">
                <path d="M0,7.631C-0.5,7.131 -0.73,6.561 -0.73,5.86C-0.73,5.561 -0.67,5.28 -0.561,5.021C-0.431,4.721 -0.271,4.471 -0.07,4.251L0.34,3.791L-0.04,3.301C-0.21,3.08 -0.341,2.851 -0.42,2.591C-0.511,2.341 -0.561,2.07 -0.561,1.78C-0.561,1.07 -0.311,0.49 0.18,0.001C0.68,-0.499 1.26,-0.739 1.97,-0.739L7.58,-0.739L7.58,0.221L1.89,0.221C1.47,0.221 1.1,0.391 0.8,0.671C0.5,0.971 0.33,1.351 0.33,1.78C0.33,2.211 0.5,2.58 0.79,2.87C1.1,3.181 1.479,3.341 1.899,3.32L7.17,3.32L7.17,4.301L1.79,4.301C1.37,4.301 0.979,4.461 0.689,4.761C0.38,5.061 0.229,5.441 0.229,5.86C0.229,6.28 0.39,6.651 0.68,6.95C0.909,7.181 1.189,7.33 1.5,7.381L1.79,7.401L7.58,7.401L7.58,8.37L1.79,8.37C1.08,8.37 0.5,8.131 0,7.631" style="fill:white;"/>
            </g>
            <g transform="matrix(1,0,0,1,365.68,494.42)">
                <path d="M0,9.14L0,8.151L6.931,8.151L7.21,8.14C7.53,8.08 7.811,7.941 8.04,7.691C8.33,7.401 8.48,7.021 8.48,6.6C8.48,6.191 8.33,5.8 8.03,5.5C7.74,5.201 7.351,5.04 6.931,5.04L1.28,5.04C0.59,5.04 0,4.8 -0.5,4.3C-1,3.79 -1.25,3.21 -1.25,2.521C-1.25,1.83 -1,1.25 -0.5,0.75C0,0.25 0.58,0.01 1.28,0.01L8.221,0L8.221,0.96L1.24,0.96C0.84,0.981 0.48,1.151 0.19,1.42C-0.109,1.72 -0.279,2.111 -0.279,2.531C-0.279,2.96 -0.1,3.35 0.2,3.64C0.48,3.911 0.851,4.09 1.28,4.09L6.931,4.09C7.63,4.09 8.21,4.33 8.71,4.83C9.21,5.34 9.45,5.92 9.45,6.63C9.45,7.321 9.21,7.901 8.71,8.401C8.21,8.901 7.63,9.14 6.931,9.14L0,9.14Z" style="fill:white;"/>
            </g>
            <g transform="matrix(1,0,0,1,281.3,495.189)">
                <path d="M0,7.631C-0.5,7.131 -0.74,6.551 -0.74,5.86C-0.74,5.561 -0.69,5.28 -0.57,5.021C-0.44,4.721 -0.28,4.471 -0.08,4.24L0.32,3.791L-0.05,3.311C-0.22,3.08 -0.35,2.851 -0.43,2.591C-0.52,2.341 -0.57,2.07 -0.57,1.78C-0.57,1.07 -0.32,0.49 0.17,0.001C0.67,-0.499 1.25,-0.739 1.96,-0.739L7.57,-0.739L7.57,0.231L1.88,0.231C1.47,0.231 1.09,0.381 0.79,0.671C0.48,0.971 0.32,1.351 0.32,1.78C0.32,2.211 0.49,2.58 0.78,2.87C1.08,3.181 1.48,3.341 1.89,3.32L7.16,3.32L7.16,4.301L1.78,4.301C1.36,4.301 0.98,4.461 0.68,4.761C0.38,5.051 0.22,5.441 0.22,5.86C0.22,6.28 0.39,6.651 0.67,6.95C0.98,7.271 1.38,7.421 1.8,7.401L7.57,7.401L7.57,8.37L1.78,8.37C1.07,8.37 0.49,8.131 0,7.631" style="fill:rgb(3,168,242);"/>
            </g>
            <g transform="matrix(1,0,0,1,218.05,445.07)">
                <path d="M0,34.84L0,31.15L22.14,31.14L23.24,31.08C24.44,30.88 25.52,30.319 26.39,29.4C27.47,28.29 28.1,26.87 28.1,25.25C28.1,23.64 27.5,22.17 26.35,21.029C25.23,19.91 23.78,19.29 22.14,19.29L1.57,19.29L1.57,15.529L21.76,15.529L22.84,15.47C24.03,15.279 25.09,14.699 25.96,13.84C27.09,12.71 27.72,11.27 27.72,9.65C27.72,8.02 27.11,6.55 25.93,5.4C24.78,4.3 23.36,3.699 21.76,3.699L0,3.699L0,0L21.45,0C24.16,0 26.38,0.93 28.29,2.83C30.19,4.72 31.1,6.94 31.1,9.65C31.1,10.779 30.93,11.81 30.61,12.76C30.27,13.72 29.78,14.63 29.13,15.47L27.69,17.34L29.26,19.1C30.02,19.949 30.63,20.91 31.13,22.029C31.57,23.029 31.79,24.09 31.79,25.25C31.79,27.91 30.87,30.13 28.97,32.02C27.07,33.92 24.85,34.84 22.14,34.84L0,34.84Z" style="fill:white;"/>
            </g>
        </g>
    </g>
</svg>
