<?xml version="1.0" encoding="UTF-8" standalone="no"?><!DOCTYPE svg PUBLIC "-//W3C//DTD SVG 1.1//EN" "http://www.w3.org/Graphics/SVG/1.1/DTD/svg11.dtd"><svg width="100%" height="100%" viewBox="0 0 78 113" version="1.1" xmlns="http://www.w3.org/2000/svg" xmlns:xlink="http://www.w3.org/1999/xlink" xml:space="preserve" xmlns:serif="http://www.serif.com/" style="fill-rule:evenodd;clip-rule:evenodd;stroke-linejoin:round;stroke-miterlimit:2;"><path d="M38.938,0.927l0.109,-0c21.346,-0 38.676,17.33 38.676,38.676c0,1.17 -0.052,2.328 -0.154,3.472c-1.818,37.466 -38.63,69.109 -38.63,69.109c0,-0 -38.7,-34.472 -38.7,-71.966c0,-0.827 0.06,-1.651 0.175,-2.467c0.967,-20.453 17.85,-36.768 38.524,-36.824Zm0.1,21.068c11.397,0 20.651,9.254 20.651,20.651c-0,11.398 -9.254,20.651 -20.651,20.651c-11.398,0 -20.651,-9.253 -20.651,-20.651c-0,-11.397 9.253,-20.651 20.651,-20.651Z" style="fill:#009def;"/></svg>