<?xml version="1.0" encoding="UTF-8" standalone="no"?><!DOCTYPE svg PUBLIC "-//W3C//DTD SVG 1.1//EN" "http://www.w3.org/Graphics/SVG/1.1/DTD/svg11.dtd"><svg width="100%" height="100%" viewBox="0 0 1188 280" version="1.1" xmlns="http://www.w3.org/2000/svg" xmlns:xlink="http://www.w3.org/1999/xlink" xml:space="preserve" xmlns:serif="http://www.serif.com/" style="fill-rule:evenodd;clip-rule:evenodd;stroke-linecap:round;stroke-linejoin:round;stroke-miterlimit:1.5;"><path d="M21.672,259.039c0,-0 67.701,-61.899 131.785,-120.491c62.842,-57.456 159.729,-55.432 220.116,4.599c2.455,2.44 4.912,4.884 7.368,7.325c60.416,60.06 157.996,60.053 218.403,-0.017c1.952,-1.941 3.905,-3.884 5.857,-5.825c28.781,-28.62 67.874,-44.446 108.459,-43.906c40.586,0.541 79.244,17.401 107.252,46.778c0.008,0.008 0.016,0.015 0.023,0.023c27.994,29.361 66.629,46.216 107.193,46.762c40.564,0.547 79.64,-15.26 108.414,-43.856c62.76,-62.371 129.229,-128.427 129.229,-128.427" style="fill:none;stroke:#fff;stroke-width:36.7px;"/></svg>